# xmcd
#
# Track frame offsets:
#	150
#	15682
#	55586
#	99262
#	116287
#	154733
#	180669
#	201075
#
# Disc length: 3615 seconds
#
# Revision: 1
# Processed by: cddbd v1.4PL0 Copyright (c) Steve Scherf et al.
# Submitted via: EasyCDDAExtractor 5.1.0
#
DISCID=570e1d08
DTITLE=The Allman Brothers Band - Good Morning '74
DYEAR=1900
DGENRE=Blues
TTITLE0=Done Somebody Wrong
TTITLE1=One Way Out
TTITLE2=Stormy Monday
TTITLE3=Midnight Rider
TTITLE4=Blue Sky
TTITLE5=Come And Go Blues
TTITLE6=Ramblin' Man
TTITLE7=Statesboro Blues - You Don't Love Me
EXTD=
EXTT0=
EXTT1=
EXTT2=
EXTT3=
EXTT4=
EXTT5=
EXTT6=
EXTT7=
PLAYORDER=
